:SAMPLES-PER-SECOND 30
:FULLY-SPECIFIED
:DEGREES
287
root  3.28636 37.8083 1.81017 62.5747 88.0051 65.0145
RightUpLeg  -28.903 -8.76692 2.09571
RightLeg  16.2247 0.815459 0.300247
RightFoot  3.72367 -0.220454 1.85097
RightToes  0.00048216 0.542163 -0.142577
Spine  15.1823 -4.51302 -3.66275
Spine1  6.74672 -5.99807 2.23277
HEad  7.90232 31.6769 -9.46995
LeftShoulder1  6.01456 -8.0986 -45.1336
LeftArm  -12.3631 11.5905 -33.2242
LeftForeArm  26.177 -21.0034 -3.52868
LeftHand  -0.25398 0.0180481 5.50724
RightShoulder  4.12679 7.08202 33.0392
RightArm  1.9514 -36.2794 52.1848
RightForeArm  17.6583 14.656 7.18172
RightHand  -1.09752 2.97452 -15.4184
LeftUpLeg  20.5591 6.80725 -1.08392
LeftLeg  11.4278 13.6323 -1.50038
LeftFoot  -27.4868 -0.434498 -4.22314
LeftToes  1.06246e-005 4.65855e-005 -8.18505e-006
288
root  4.82549 37.573 1.69437 -87.9789 89.6445 -85.9556
RightUpLeg  -30.3783 -9.25767 3.62553
RightLeg  22.2064 -0.813995 -0.614178
RightFoot  5.19466 0.0738195 -0.29105
RightToes  0.00048216 0.542163 -0.142577
Spine  15.0206 -5.25664 -1.16182
Spine1  6.57593 -6.77252 3.35904
HEad  7.94259 32.1339 -10.7998
LeftShoulder1  6.10868 -8.26763 -45.1864
LeftArm  -13.8925 12.783 -34.3729
LeftForeArm  27.2034 -24.1103 -3.69574
LeftHand  -0.25398 0.0180481 5.50724
RightShoulder  4.05817 6.98358 32.7524
RightArm  4.07222 -37.0378 50.7476
RightForeArm  16.5291 15.0183 7.20639
RightHand  -1.27434 3.55002 -16.7585
LeftUpLeg  22.1239 7.63622 1.42007
LeftLeg  12.4933 11.5097 -0.127602
LeftFoot  -27.3163 -0.522008 -4.87255
LeftToes  1.06246e-005 4.65855e-005 -8.18505e-006
289
root  6.38563 37.4039 1.56956 -129.293 87.6078 -126.933
RightUpLeg  -30.4515 -9.9668 4.78653
RightLeg  27.6811 -1.29917 -0.954711
RightFoot  3.48632 0.233479 -1.62759
RightToes  0.00048216 0.542163 -0.142577
Spine  15.8534 -5.73112 1.57164
Spine1  6.4535 -7.07984 4.05098
HEad  7.46702 32.26 -12.0797
LeftShoulder1  6.32508 -8.64066 -45.3605
LeftArm  -15.4567 13.5218 -34.1433
LeftForeArm  25.8107 -25.6134 -4.11813
LeftHand  -0.25398 0.0180481 5.50724
RightShoulder  4.10416 7.00812 33.0976
RightArm  1.66294 -36.1517 47.8487
RightForeArm  15.4545 13.4679 7.63747
RightHand  -1.30927 3.37282 -17.5293
LeftUpLeg  23.6438 9.13397 4.23659
LeftLeg  15.1482 8.3341 1.52321
LeftFoot  -26.2862 -0.956419 -8.54999
LeftToes  1.06246e-005 4.65855e-005 -8.18505e-006
290
root  7.96047 37.3392 1.4471 -117.953 86.2608 -115.093
RightUpLeg  -29.3218 -10.8642 5.71993
RightLeg  31.6558 -0.674972 -0.692282
RightFoot  0.114285 0.265233 -2.62993
RightToes  0.00048216 0.542163 -0.142577
Spine  16.4178 -5.99209 4.50091
Spine1  7.13998 -6.88006 3.93006
HEad  6.92784 32.1884 -13.337
LeftShoulder1  6.61621 -9.08864 -45.7823
LeftArm  -16.0851 13.6921 -32.5769
LeftForeArm  24.5177 -26.4424 -4.36698
LeftHand  -0.25398 0.0180481 5.50724
RightShoulder  4.25677 7.16959 33.9313
RightArm  -3.61601 -33.3813 44.4235
RightForeArm  16.1281 10.4423 7.71736
RightHand  -1.22505 2.74702 -17.6275
LeftUpLeg  23.5467 9.8154 6.26785
LeftLeg  20.7196 7.18813 3.50092
LeftFoot  -22.461 -1.12848 -13.1094
LeftToes  1.06246e-005 4.65855e-005 -8.18505e-006
291
root  9.50973 37.368 1.3609 -112.852 85.1713 -110.089
RightUpLeg  -27.8945 -11.5821 6.52269
RightLeg  34.0442 -0.266005 -0.453263
RightFoot  -3.19898 0.182952 -2.84317
RightToes  0.00048216 0.542163 -0.142577
Spine  15.9131 -5.97737 7.46776
Spine1  8.30226 -6.22246 3.22562
HEad  7.03376 31.6811 -14.1248
LeftShoulder1  6.83228 -9.43593 -46.0213
LeftArm  -16.6483 13.8262 -30.8011
LeftForeArm  25.6772 -28.0332 -4.65738
LeftHand  -0.25398 0.0180481 5.50724
RightShoulder  4.48025 7.49132 34.7874
RightArm  -8.50781 -29.272 41.2949
RightForeArm  16.3291 7.09761 6.7648
RightHand  -1.17983 2.39503 -17.7259
LeftUpLeg  19.6576 8.87715 7.10068
LeftLeg  30.9074 9.66343 6.58414
LeftFoot  -13.8181 -0.26187 -12.9547
LeftToes  1.06246e-005 4.65855e-005 -8.18505e-006
292
root  10.9104 37.4445 1.31808 -113.886 83.8853 -111.626
RightUpLeg  -26.4956 -12.1916 7.29049
RightLeg  35.2976 -0.468737 -0.624984
RightFoot  -5.95405 0.0641455 -2.20572
RightToes  0.00048216 0.542163 -0.142577
Spine  15.1352 -5.74744 10.2394
Spine1  9.31271 -5.32896 2.61139
HEad  7.74501 30.3295 -14.1595
LeftShoulder1  6.9632 -9.72129 -45.8905
LeftArm  -17.8027 14.2703 -29.5845
LeftForeArm  28.414 -31.2633 -5.25621
LeftHand  -0.25398 0.0180481 5.50724
RightShoulder  4.76147 7.97053 35.5241
RightArm  -11.3229 -24.4932 38.2897
RightForeArm  13.5913 4.62023 5.54192
RightHand  -1.21551 2.40082 -18.2318
LeftUpLeg  12.6684 8.4666 8.08149
LeftLeg  43.2936 10.0239 10.2926
LeftFoot  -2.51272 0.537422 -6.90547
LeftToes  1.06246e-005 4.65855e-005 -8.18505e-006
293
root  12.1542 37.5434 1.28453 -121.158 82.4169 -119.107
RightUpLeg  -24.7057 -13.0838 7.71243
RightLeg  35.9681 -0.880151 -0.959587
RightFoot  -8.44499 -0.0191285 -1.53438
RightToes  0.00048216 0.542163 -0.142577
Spine  14.9399 -5.4977 12.4902
Spine1  10.1415 -4.44511 2.32546
HEad  8.41769 28.1796 -13.7757
LeftShoulder1  7.11923 -10.0681 -45.7174
LeftArm  -19.1521 14.7919 -28.6549
LeftForeArm  30.5257 -35.8096 -6.27516
LeftHand  -0.25398 0.0180481 5.50724
RightShoulder  5.0511 8.45712 36.2427
RightArm  -12.7438 -19.2177 34.8676
RightForeArm  9.31816 3.38271 5.09564
RightHand  -1.33821 2.83593 -19.0041
LeftUpLeg  4.87607 7.3235 8.69037
LeftLeg  54.3754 7.62357 11.6765
LeftFoot  4.03982 0.213005 -1.52302
LeftToes  1.06246e-005 4.65855e-005 -8.18505e-006
